<svg version="1.1" id="Layer_1" xmlns="http://www.w3.org/2000/svg" xmlns:xlink="http://www.w3.org/1999/xlink" x="0px" y="0px"
	 width="100%" viewBox="0 0 1024 1024" enable-background="new 0 0 1024 1024" xml:space="preserve">
<path fill="#000000" opacity="1.000000" stroke="none" 
	d="
M606.531372,1.000000 
	C614.517883,11.266638 623.883179,19.085791 635.846924,23.862293 
	C641.870422,26.267189 646.550415,31.081245 651.779907,34.813053 
	C661.502808,41.751450 671.654968,47.222801 683.038574,51.043671 
	C700.758057,56.991169 716.135681,67.383568 730.359497,79.323471 
	C733.393005,81.869965 735.272461,85.977615 737.193787,89.624123 
	C741.183167,97.195793 747.679138,102.273140 754.772278,106.146271 
	C769.998779,114.460510 784.290771,124.249619 799.153931,133.122726 
	C805.586975,136.963150 809.649475,143.284485 814.798279,148.459152 
	C822.239807,155.938004 829.778198,163.153259 839.897461,166.993134 
	C841.569519,167.627579 843.195251,168.683548 844.513000,169.901169 
	C850.960510,175.858643 858.303284,180.328735 866.413208,183.610703 
	C870.980164,185.458908 874.583862,188.511475 877.930725,192.136322 
	C885.831360,200.693192 894.753296,208.352081 901.445618,217.964676 
	C908.350403,227.882385 916.058899,237.453873 917.572021,250.145035 
	C917.956482,253.370071 917.716980,256.471161 916.993347,259.557159 
	C915.109863,267.588867 915.849915,275.520477 918.304504,283.231293 
	C921.686401,293.855103 926.095581,304.082764 930.402161,314.380432 
	C939.237488,335.507141 948.342407,356.654083 944.408264,380.791931 
	C943.127686,388.648712 944.395081,397.056946 946.288147,405.055511 
	C947.821838,411.536011 949.145203,418.075439 950.946533,424.480560 
	C952.367981,429.534851 954.643677,433.736389 960.633728,435.385895 
	C967.109924,437.169281 968.834656,447.949768 962.906738,452.257233 
	C955.586853,457.576080 952.937439,465.051971 952.291138,472.827087 
	C950.743896,491.441132 943.438416,508.309448 937.032532,525.292786 
	C931.942627,538.787231 923.190491,550.404846 907.624817,554.094849 
	C905.378052,554.627441 903.814209,555.906738 902.592468,557.863586 
	C900.297119,561.540039 898.179626,565.285156 896.323547,569.217224 
	C894.285400,573.534851 893.571594,577.624146 895.779297,582.124878 
	C897.840881,586.328003 897.853210,591.134460 896.908813,595.399170 
	C893.638855,610.165222 896.237732,624.933105 896.113770,639.689331 
	C896.027344,649.973267 891.856079,657.680054 882.198120,661.944519 
	C879.762512,663.019897 877.307800,664.091003 874.779419,664.909302 
	C869.054016,666.762390 863.658813,669.015442 858.725769,672.714050 
	C853.807556,676.401672 848.020142,678.789551 842.038513,680.491638 
	C839.932678,681.090942 837.597473,681.689331 836.672729,683.818115 
	C831.701538,695.262512 822.298157,702.726196 813.133728,710.424927 
	C806.608521,715.906433 803.668762,723.584045 800.549744,731.127686 
	C800.058594,732.315491 799.776123,733.807129 800.009827,735.042419 
	C801.796387,744.484863 801.578857,754.186035 804.816284,763.487976 
	C808.696655,774.637329 809.972412,785.782288 800.963928,795.818115 
	C795.766479,801.608215 789.024963,802.564636 782.856812,797.374878 
	C776.985229,792.434631 772.866577,786.267700 769.953979,779.239075 
	C764.041138,764.970337 756.020508,760.189087 740.784668,761.870605 
	C732.703918,762.762512 724.501465,762.419800 716.574097,764.882690 
	C710.409363,766.797974 705.901001,770.564819 703.462402,776.302307 
	C699.109802,786.542969 690.221802,791.039307 680.759033,794.412598 
	C673.251648,797.088867 665.252197,798.221985 657.172729,797.949890 
	C654.071167,797.845459 651.247131,798.704773 648.641357,800.341980 
	C646.807129,801.494324 645.090515,802.895142 643.140625,803.791931 
	C634.564087,807.736511 628.318848,813.594604 623.963379,822.306396 
	C619.610413,831.013367 613.769409,832.247253 604.714844,828.290649 
	C601.398743,826.841614 597.898499,826.698425 594.454590,826.376282 
	C591.243164,826.075928 588.265991,825.847351 585.715027,823.462219 
	C583.575256,821.461792 581.776062,822.769470 580.327637,824.749939 
	C576.306274,830.248474 572.424316,835.917053 568.953979,841.702942 
	C560.352722,856.043457 548.668457,866.156189 532.863403,871.541443 
	C529.869507,872.561523 526.926331,873.840881 523.697205,873.843445 
	C515.629517,873.849854 508.795624,877.361206 502.650909,881.969360 
	C492.299316,889.732422 476.597351,884.960449 473.159943,872.274048 
	C471.686462,866.835815 469.100250,862.807190 464.881561,859.127502 
	C457.967224,853.096619 452.131775,845.972656 447.055786,838.296997 
	C442.366425,831.205994 438.169403,827.361328 427.853943,831.299011 
	C415.940033,835.846802 397.548737,830.880127 389.969604,818.428772 
	C386.049225,811.988220 380.384125,806.523926 375.055115,801.059448 
	C371.985260,797.911499 367.678345,796.221313 363.129303,797.061951 
	C350.270844,799.438354 337.601990,798.439880 324.980347,795.531921 
	C324.012268,795.309021 322.965271,795.044739 322.014221,795.189392 
	C308.595856,797.231262 297.354553,791.196228 286.008453,785.557678 
	C265.421021,775.326721 245.452972,763.940857 225.773575,752.108093 
	C217.555435,747.166809 212.035828,739.851318 210.523041,729.362122 
	C209.125031,719.668640 203.266479,711.454102 195.955780,704.954712 
	C191.881653,701.332642 188.377594,697.575623 185.808975,692.823914 
	C181.967026,685.716492 177.452118,683.319397 169.696686,685.678772 
	C157.638962,689.347290 147.648911,684.154053 137.586334,679.148132 
	C133.824249,677.276550 132.530502,673.138306 130.955322,669.444824 
	C126.830719,659.773254 126.674988,649.334778 124.805580,639.212341 
	C122.628845,627.425842 126.787033,616.438538 127.628830,605.061401 
	C127.958359,600.607727 128.760452,596.177002 129.159317,591.693909 
	C129.661835,586.046021 130.905731,580.611450 137.593887,578.367310 
	C141.397186,577.091125 144.634781,573.992798 146.580475,570.642761 
	C153.739990,558.315796 163.430481,547.570740 169.208023,534.419495 
	C170.607483,531.233948 171.338943,527.760010 172.476593,524.452820 
	C173.621628,521.123962 175.523361,518.128601 179.369675,518.179382 
	C183.551010,518.234680 186.341934,520.637268 187.767914,524.792969 
	C190.293228,532.152527 190.728424,539.776672 191.196182,547.423218 
	C191.314117,549.351135 190.887833,552.087402 193.441696,552.340271 
	C196.326355,552.625854 197.068314,549.878845 197.564545,547.566162 
	C197.840454,546.280273 197.804428,544.913208 197.799210,543.583191 
	C197.661362,508.424774 197.504639,473.266449 197.369644,438.108032 
	C197.360703,435.778137 197.664780,433.437195 197.519348,431.120483 
	C197.384338,428.969330 197.111130,426.474152 194.021820,426.716980 
	C191.387894,426.924011 190.427567,428.799835 190.409393,431.269989 
	C190.356674,438.434204 190.167145,445.600342 190.277130,452.761932 
	C190.373016,459.005585 189.311996,464.957947 187.448746,470.920135 
	C186.084274,475.286285 183.112091,477.493622 179.179962,477.665802 
	C175.134964,477.842957 173.345642,474.377869 172.236069,470.868164 
	C171.834824,469.598877 171.446976,468.307770 171.241425,466.997070 
	C169.828079,457.984894 166.243744,450.352112 159.001846,444.292633 
	C153.350433,439.563934 150.238464,433.122467 149.850586,425.485565 
	C149.646011,421.457733 148.184250,417.721832 145.939163,414.279358 
	C144.582901,412.199738 143.349213,409.960449 142.526535,407.628479 
	C140.591125,402.142487 142.072098,398.786713 147.216187,396.149719 
	C154.528305,392.401245 158.721313,382.687378 156.419968,375.011108 
	C152.876328,363.191071 154.805389,351.702148 158.866302,340.440857 
	C160.273712,336.537933 162.122238,332.767975 164.052673,329.085876 
	C166.891129,323.671783 166.339966,318.521271 163.502640,313.362610 
	C155.400955,298.632507 158.224136,286.086395 172.278778,277.241760 
	C186.228561,268.463104 199.877716,259.247162 213.606934,250.142517 
	C216.908096,247.953339 219.589417,244.972336 221.358475,241.786621 
	C225.850662,233.697006 232.722198,226.397308 230.913788,215.812393 
	C230.146973,211.324066 232.074738,206.940613 233.006577,202.553070 
	C234.580475,195.142517 234.100449,188.036118 230.599411,181.169540 
	C226.623947,173.372482 230.823532,166.700333 235.391006,161.586075 
	C247.026932,148.557159 255.950455,133.371460 268.793243,121.255814 
	C274.466675,115.903580 278.036621,108.304741 282.479706,101.671043 
	C285.529755,97.117226 289.788177,94.312996 295.042877,93.299759 
	C303.426727,91.683151 310.827942,88.253441 317.281830,82.651581 
	C318.505005,81.589882 320.154755,80.982773 321.667267,80.297424 
	C329.441833,76.774574 336.994232,72.719048 343.370178,67.092392 
	C353.411652,58.230980 365.995087,54.591232 377.739807,49.202351 
	C384.673279,46.021023 392.349670,44.797363 399.004913,40.721581 
	C402.518158,38.570007 406.752808,37.616970 411.056427,38.243233 
	C419.295593,39.442211 426.741791,37.360416 432.911011,31.968489 
	C437.860107,27.642921 443.426056,24.397646 448.959503,21.028728 
	C451.927521,19.221689 454.144989,17.198284 452.055054,13.382730 
	C451.183136,11.790896 452.228668,10.598497 452.769440,9.204550 
	C453.848022,6.424377 456.870453,4.782161 457.053436,1.280469 
	C506.687561,1.000000 556.375122,1.000000 606.531372,1.000000 
M638.002747,372.503998 
	C623.387390,364.530579 608.033081,358.418762 591.298584,357.511932 
	C555.552490,355.574829 524.050354,366.635712 498.511932,391.770294 
	C475.338898,414.576996 461.928986,442.533264 459.090607,475.327362 
	C457.608337,492.453308 458.284363,509.139038 464.368378,525.464111 
	C479.210632,565.289612 505.829346,593.662537 546.326721,607.176697 
	C579.123718,618.121216 610.873779,613.267578 640.400879,595.393494 
	C659.240540,583.989014 674.766724,569.108337 685.082764,549.356262 
	C687.540588,544.650391 689.294556,539.582214 691.582214,534.780762 
	C694.657776,528.325562 694.403259,527.572205 687.147156,526.057434 
	C677.798645,524.105896 668.955994,520.747925 660.272949,516.864807 
	C657.853455,515.782776 655.293762,515.009644 652.784973,514.133301 
	C650.843323,513.455017 649.687012,514.181335 648.934387,516.101624 
	C644.693298,526.923340 637.501587,535.674622 628.655701,542.885376 
	C611.348511,556.993469 591.718445,564.204346 569.231262,559.561768 
	C535.098022,552.514893 516.898621,529.345947 508.114105,497.285034 
	C507.032135,493.336121 506.806458,489.079437 507.061554,484.880981 
	C508.557892,460.251770 519.363831,440.430756 538.911621,425.757141 
	C556.665710,412.429993 576.743652,407.075104 598.761230,412.389954 
	C621.023987,417.763977 636.669800,431.739441 647.423401,451.547791 
	C650.528381,457.267273 650.390686,457.220947 656.485657,454.743622 
	C667.275879,450.357910 677.781677,445.235931 688.954102,441.833282 
	C692.506714,440.751282 693.614075,438.647705 692.096008,435.454498 
	C688.594910,428.089844 685.522644,420.513947 681.190796,413.551971 
	C670.481140,396.339569 656.072815,383.030518 638.002747,372.503998 
M374.930450,513.397888 
	C368.940887,498.815735 367.160950,483.689117 370.997833,468.427429 
	C380.785461,429.495850 415.052856,406.305328 452.892609,410.372711 
	C456.385345,410.748138 458.416687,410.053772 460.228241,407.006165 
	C467.054657,395.521881 475.231293,385.044128 484.241180,375.169495 
	C486.507599,372.685577 490.418335,371.731018 491.416077,367.803955 
	C487.023773,364.195374 481.804077,362.802704 476.742981,361.413696 
	C448.563660,353.680054 421.249725,355.827271 394.478210,367.984894 
	C375.510529,376.598602 359.142670,388.409576 347.475220,405.522949 
	C334.420288,424.671417 325.707703,445.839630 323.054596,469.204315 
	C319.309021,502.190308 326.316193,532.877441 345.784729,559.499939 
	C372.677124,596.274231 408.752289,616.183899 455.580444,612.638245 
	C465.527924,611.885071 475.487579,610.716248 484.525421,605.778137 
	C490.277771,602.635193 490.846832,600.601135 486.384216,596.018250 
	C476.721191,586.094910 467.314117,575.989868 460.610229,563.719055 
	C459.156158,561.057434 457.332306,560.087158 454.086945,560.786072 
	C450.384338,561.583252 446.456238,561.924194 442.676666,561.680237 
	C410.524017,559.605286 388.214813,543.436157 374.930450,513.397888 
M461.495239,767.976318 
	C455.998260,777.138794 455.812225,787.254639 456.016968,797.502502 
	C456.444641,818.909485 467.016296,833.429565 485.885132,842.685730 
	C508.567413,853.812683 534.614319,847.804871 548.215637,833.870361 
	C571.571106,809.942871 571.367065,775.486816 545.786133,750.519348 
	C530.629761,735.726501 501.032654,733.608704 482.649323,744.214233 
	C473.131256,749.705383 467.441589,758.413025 461.495239,767.976318 
M825.772705,643.704102 
	C818.595154,611.013611 790.138794,593.962402 759.352173,600.756775 
	C730.464722,607.131836 715.893860,629.336304 717.880554,659.004578 
	C720.468750,697.656555 756.547852,716.126953 787.961609,707.847961 
	C814.490295,700.856201 831.183350,672.487732 825.772705,643.704102 
M770.586487,369.760223 
	C777.637695,369.783997 784.552490,368.933685 791.125793,366.244934 
	C813.558044,357.069336 827.620117,339.556580 826.686279,312.824188 
	C826.033203,294.129028 818.135315,278.398499 802.767456,268.319855 
	C770.435242,247.115524 729.208435,262.492584 719.899658,299.879242 
	C710.717102,336.758667 736.401978,367.857513 770.586487,369.760223 
M262.561829,368.048889 
	C272.039490,365.892670 280.316101,361.573334 287.147034,354.564423 
	C299.306000,342.088684 303.715393,327.063690 302.829315,309.878815 
	C301.347839,281.145599 278.903107,258.760162 249.213730,258.679626 
	C214.805771,258.586304 190.994720,287.302124 195.914566,322.185120 
	C200.376678,353.822723 227.368759,376.099792 262.561829,368.048889 
M474.105652,147.572723 
	C470.240875,151.018784 466.578552,154.634201 463.997406,159.202957 
	C449.371490,185.091537 454.277710,214.838699 477.479340,233.384369 
	C493.873596,246.488754 512.476318,249.351089 532.308838,240.713318 
	C546.551392,234.510223 554.817383,223.079559 560.940796,209.499756 
	C570.740601,187.766968 562.373352,158.647934 542.482788,145.645294 
	C520.861633,131.511398 495.868347,132.054367 474.105652,147.572723 
M200.356644,678.133545 
	C212.484421,703.755188 237.310654,712.513123 261.333466,707.855591 
	C290.922852,702.118896 307.546356,672.046631 302.105316,642.839966 
	C294.804077,603.648010 257.823792,591.210083 225.306122,604.594910 
	C194.263977,617.372375 189.883743,657.055298 200.356644,678.133545 
M635.191467,777.632263 
	C641.572388,774.133545 647.898010,770.543396 653.763245,765.966797 
	C661.449829,773.317200 669.577576,777.362915 680.107544,772.510986 
	C689.709412,768.086792 690.586487,760.122070 689.217529,751.216553 
	C695.596130,749.686707 700.741821,746.631714 705.795410,743.429443 
	C715.830872,737.070435 727.292969,733.596741 737.522278,727.641968 
	C739.204102,726.662903 741.497375,725.906860 740.373108,723.223022 
	C739.311035,720.687500 737.290283,719.839417 734.653320,720.726562 
	C733.394592,721.150085 732.060791,721.502502 730.951294,722.192932 
	C723.860779,726.605835 716.095825,729.719299 708.821289,733.755066 
	C701.767212,737.668396 693.789612,740.222473 688.463013,747.574402 
	C682.886169,738.346802 675.023682,735.278442 665.195190,738.063721 
	C651.813721,741.855896 651.707214,752.822632 652.277283,763.341370 
	C638.953979,768.137756 626.980225,774.020630 617.215393,783.437317 
	C605.352905,777.050354 598.283813,776.923035 592.799500,782.822510 
	C588.699402,787.232971 588.320007,796.575684 591.998535,802.546692 
	C595.501770,808.233154 604.075012,811.625305 610.427368,809.210144 
	C621.837036,804.872375 620.857422,795.647095 618.388367,785.918701 
	C625.216797,785.564331 629.288818,780.639282 635.191467,777.632263 
M561.043579,455.406342 
	C559.917969,452.097260 558.682007,448.820740 557.694763,445.470886 
	C556.464233,441.295288 554.265015,441.151550 551.151978,443.545837 
	C543.383728,449.520660 537.047607,456.740784 532.528259,465.435577 
	C525.626892,478.713287 525.276917,492.133331 531.982239,505.662079 
	C536.028015,513.825012 541.820374,520.700317 547.880005,527.339966 
	C552.945374,532.890137 556.111267,532.153015 558.264893,525.001526 
	C565.091125,502.333527 567.574890,479.439331 561.043579,455.406342 
M861.784851,516.043091 
	C865.588074,513.764465 868.523193,516.049988 871.314453,518.087219 
	C874.346802,520.300476 877.503052,520.777893 880.656494,519.002075 
	C885.057983,516.523376 888.315552,513.072815 887.959412,507.474396 
	C887.421265,499.015656 886.209717,490.538879 887.315308,482.084564 
	C888.055298,476.426605 886.981750,471.135803 885.379211,465.883057 
	C883.530396,459.823425 880.904602,459.025726 876.895813,463.701843 
	C871.655762,469.814148 865.102600,471.907501 857.413940,471.935272 
	C846.906677,471.973236 844.184692,474.677368 840.904968,484.731781 
	C837.820435,494.188049 838.427063,503.354614 840.623596,512.713745 
	C841.415710,516.088806 840.773315,519.699036 842.443237,522.966125 
	C845.338745,528.630981 849.757019,529.424744 854.445435,525.138733 
	C857.193726,522.626343 858.884033,519.332092 861.784851,516.043091 
M456.557007,753.385315 
	C459.448151,750.076111 456.851959,748.815063 454.353516,747.584045 
	C437.625580,739.342529 421.278564,730.383301 404.898224,721.481384 
	C376.969269,706.303406 349.004578,691.190491 320.989044,676.173035 
	C314.002228,672.427856 314.135162,672.765747 310.661072,679.822327 
	C308.825226,683.551270 309.741119,685.271423 313.254578,686.617371 
	C315.264862,687.387390 317.151733,688.489197 319.070831,689.486511 
	C361.597992,711.586060 402.892242,736.016602 446.197571,756.657715 
	C450.895477,758.896973 453.926788,758.833740 456.557007,753.385315 
M702.624207,687.100220 
	C711.812439,682.603882 712.201538,680.627625 705.501892,672.059387 
	C702.202332,672.686523 699.442200,674.606262 696.544983,676.181274 
	C687.628784,681.028259 678.769409,685.979980 669.848938,690.818970 
	C635.340149,709.538208 600.813171,728.223938 566.304321,746.942993 
	C563.848389,748.275146 560.516479,749.552734 563.158752,753.186951 
	C565.122192,755.887512 566.553406,759.840759 571.676819,757.064392 
	C588.643188,747.870850 605.849304,739.121033 622.867981,730.022339 
	C649.275085,715.904358 675.603699,701.639587 702.624207,687.100220 
M333.559937,295.983612 
	C349.111420,287.285065 364.496948,278.271851 380.253418,269.962036 
	C403.677307,257.608459 426.897156,244.899826 449.871185,231.736176 
	C454.555603,229.052109 454.497650,227.849640 451.299408,221.993027 
	C448.981140,217.747818 446.607208,219.782913 443.950592,221.248230 
	C411.727783,239.021011 379.435333,256.668671 347.295990,274.591003 
	C336.686310,280.507416 326.489655,287.161499 316.052185,293.391327 
	C312.212158,295.683350 313.361877,298.581360 314.739868,301.578857 
	C316.260498,304.886749 318.812195,303.933777 321.075958,302.795807 
	C325.089905,300.778137 328.972839,298.499878 333.559937,295.983612 
M595.550476,233.024307 
	C587.577637,228.646088 579.667236,224.138794 571.041321,220.651810 
	C569.096008,223.984634 567.370605,226.940674 565.448425,230.233826 
	C611.757996,256.346161 658.453613,280.849426 704.902222,306.111755 
	C708.619873,296.899597 708.460388,296.277649 701.697021,292.084076 
	C697.737976,289.629303 693.805725,287.116272 689.730591,284.866364 
	C658.573303,267.664337 627.383850,250.520615 595.550476,233.024307 
M463.253723,690.721802 
	C463.993317,689.615295 464.798157,688.546509 465.462616,687.396606 
	C473.492432,673.501160 462.855530,652.192810 447.305389,650.995972 
	C432.183685,649.832092 419.511566,667.144226 423.978058,682.864685 
	C428.830994,699.945251 449.105316,704.341431 463.253723,690.721802 
M568.935852,652.195801 
	C558.040405,656.909790 552.504578,669.192993 555.841919,681.249512 
	C558.505981,690.873779 567.465576,697.737976 577.247559,697.648926 
	C587.374023,697.556641 595.996399,690.973755 598.694031,681.275208 
	C603.621643,663.558838 588.245239,647.991699 568.935852,652.195801 
M796.558411,475.914429 
	C796.564697,474.583099 796.689453,473.240082 796.559143,471.922272 
	C795.113342,457.294586 783.364258,447.876404 769.250183,449.992279 
	C755.539612,452.047638 748.186829,463.299133 751.423584,478.083740 
	C752.924866,484.941162 756.309631,491.805969 763.525879,493.374084 
	C775.366699,495.947144 792.097168,491.775879 796.558411,475.914429 
M229.626480,460.253479 
	C225.833252,466.621521 224.774002,473.442810 227.517548,480.327271 
	C232.794464,493.568878 243.317932,497.489716 257.306396,491.835815 
	C266.458893,488.136566 271.603973,479.530029 270.849152,469.181854 
	C270.154694,459.661041 264.356110,452.967560 254.717682,450.687134 
	C244.553513,448.282318 236.407288,451.530579 229.626480,460.253479 
M445.229553,320.503052 
	C446.857574,320.167999 448.511993,319.927673 450.109528,319.483093 
	C464.690643,315.425568 471.388733,300.390656 463.728577,288.257172 
	C458.729736,280.339203 451.658722,275.374817 441.731201,276.377441 
	C432.742554,277.285278 426.145172,282.901215 423.701233,291.304962 
	C419.536743,305.625061 428.931366,318.882324 445.229553,320.503052 
M560.868896,311.615112 
	C568.138062,320.185638 574.434937,321.904449 584.190674,318.078064 
	C588.314514,316.460632 591.769470,313.914001 594.648132,310.626221 
	C597.078491,307.850555 598.860657,304.412262 603.965698,303.532166 
	C599.457642,301.092590 599.327026,297.515594 598.595398,294.128296 
	C596.714478,285.420624 588.621399,277.640900 580.315796,276.355225 
	C571.388000,274.973297 562.902466,278.767639 558.435974,286.138916 
	C553.353088,294.527496 553.994507,302.560028 560.868896,311.615112 
M355.590149,738.639526 
	C353.939606,738.475037 352.290955,738.192139 350.638245,738.166138 
	C342.855347,738.043335 335.361053,743.005981 333.944061,750.521362 
	C331.807800,761.851562 333.216583,767.737488 341.141937,772.307068 
	C348.545471,776.575745 355.679291,775.851746 361.979950,770.579163 
	C365.837799,767.350830 368.246826,767.836853 372.151611,770.628784 
	C379.706390,776.030518 387.872772,780.581665 395.831818,785.409241 
	C397.483368,786.411072 399.577789,787.900635 401.114136,785.619080 
	C402.496979,783.565491 400.861969,781.648926 399.339172,780.458618 
	C390.076630,773.218628 380.332214,766.807190 368.705109,763.461121 
	C367.824921,746.734924 365.608551,742.261353 355.590149,738.639526 
M505.201233,662.500000 
	C505.147766,680.641846 505.510956,698.794434 504.320862,716.911621 
	C504.003021,721.750366 506.061432,723.506287 510.595581,723.667603 
	C515.261536,723.833557 516.667419,721.536621 516.656189,717.242920 
	C516.583679,689.603943 516.678833,661.964478 516.575928,634.325623 
	C516.557983,629.525757 516.288391,624.620728 513.392700,620.416931 
	C511.981110,618.367737 510.558319,615.693420 507.645874,616.520569 
	C504.821808,617.322632 505.419952,620.304260 505.399353,622.539429 
	C505.279694,635.525757 505.253204,648.513000 505.201233,662.500000 
M364.207703,235.658981 
	C369.134521,229.410400 368.884857,221.981110 365.564056,215.983841 
	C361.834381,209.248199 355.420288,204.509262 346.479919,206.310684 
	C338.993622,207.819122 334.746857,212.875519 332.148132,219.507278 
	C330.204437,224.467438 330.930298,229.629440 334.105530,233.698776 
	C341.653656,243.372314 354.069122,244.225220 364.207703,235.658981 
M515.826050,324.500977 
	C515.877808,311.005005 515.967163,297.509064 515.963135,284.013092 
	C515.961548,278.516663 515.731812,273.020691 515.653259,267.523804 
	C515.592651,263.282593 512.920471,262.320099 509.342102,262.191986 
	C505.413818,262.051331 505.156586,264.594940 505.177979,267.480164 
	C505.206421,271.312347 505.205933,275.144714 505.210999,278.977020 
	C505.242126,302.637360 505.247314,326.297729 505.318481,349.957947 
	C505.335785,355.712830 507.931549,357.257996 512.771667,354.796783 
	C515.303650,353.509247 515.727722,351.445648 515.734253,348.993530 
	C515.754944,341.162567 515.804871,333.331726 515.826050,324.500977 
M660.482849,238.101486 
	C663.111267,239.497131 665.613159,241.227875 668.662109,241.595428 
	C682.683716,243.285767 691.245056,232.846420 686.719238,219.607040 
	C684.056030,211.816437 677.049683,206.317886 669.818298,206.343185 
	C663.301636,206.365982 655.964905,210.870514 654.249573,216.846497 
	C651.915833,224.976959 652.280518,232.866806 660.482849,238.101486 
M832.586548,440.772980 
	C832.371033,437.119476 832.194336,433.463104 831.923828,429.813660 
	C831.782471,427.906494 831.398193,426.054474 828.836365,426.160370 
	C826.307922,426.264923 826.087341,428.132965 825.963257,430.039032 
	C825.919983,430.703094 825.913330,431.369781 825.899170,432.035492 
	C825.084412,470.313751 824.983948,508.595856 825.318420,546.879822 
	C825.334351,548.700928 825.437500,550.552246 825.792480,552.331177 
	C826.190369,554.324829 826.985840,556.559082 829.451477,556.344482 
	C831.800476,556.139954 831.765381,553.825867 831.843018,552.013977 
	C832.141907,545.033264 832.579590,538.050232 832.597290,531.067139 
	C832.672913,501.286072 832.617126,471.504700 832.586548,440.772980 
M242.410828,548.284302 
	C243.426590,559.242676 242.654922,570.201355 242.299622,581.152344 
	C242.160721,585.432617 243.452026,587.668945 248.083923,587.837219 
	C253.039566,588.017334 253.537018,584.646301 253.565628,581.297668 
	C253.763092,558.195801 253.802094,535.092468 253.869232,511.989594 
	C253.879105,508.587463 252.846863,506.137115 248.719482,506.309204 
	C244.985031,506.464874 243.336670,508.285248 243.339249,511.955536 
	C243.347565,523.753601 241.848267,535.512512 242.410828,548.284302 
M767.353271,525.501709 
	C767.345886,527.998230 767.333008,530.494690 767.331787,532.991211 
	C767.323914,549.301514 767.283936,565.611938 767.333252,581.922058 
	C767.348328,586.907471 769.374268,588.371704 774.238831,587.556885 
	C777.522034,587.007019 777.908875,584.756592 778.075623,582.095276 
	C779.419983,560.637512 777.253418,539.188477 777.932739,517.732239 
	C778.011536,515.242432 777.703918,512.742432 777.720398,510.248077 
	C777.745300,506.475372 775.391479,506.090057 772.397400,506.065125 
	C769.223389,506.038757 767.290955,506.862640 767.392029,510.523926 
	C767.520508,515.179688 767.381409,519.842834 767.353271,525.501709 
M812.490540,407.814911 
	C818.216370,416.185760 825.671265,418.596313 834.930542,415.070770 
	C841.456177,412.586090 844.139954,406.462463 842.893127,397.185547 
	C841.972778,390.337555 838.036560,386.001282 831.660461,383.965729 
	C825.425110,381.975098 819.928284,383.373016 815.375610,388.311249 
	C810.193970,393.931732 809.107117,400.151489 812.490540,407.814911 
M379.446716,210.533600 
	C380.083313,213.489716 381.856537,212.667770 383.573395,211.720734 
	C387.799500,209.389618 392.407990,207.517227 396.114319,204.531357 
	C402.216034,199.615738 407.541290,196.263306 416.345490,199.359177 
	C424.169739,202.110504 431.188049,195.190338 431.726654,186.631927 
	C432.232239,178.597809 424.952209,171.236755 416.627563,171.364838 
	C408.967957,171.482666 401.069885,179.187943 402.613434,186.363663 
	C403.847748,192.101883 401.222534,194.342209 397.438049,197.242859 
	C391.641541,201.685638 384.495361,204.204880 379.446716,210.533600 
M180.042862,395.781464 
	C179.219788,397.848724 179.310608,400.021637 179.341019,402.178162 
	C179.452179,410.063263 183.280487,414.886047 190.602356,416.409698 
	C199.315094,418.222778 206.560562,415.214203 209.704880,408.477661 
	C213.091827,401.221313 207.438492,389.548553 198.570938,385.488739 
	C191.286407,382.153687 184.340347,385.779724 180.042862,395.781464 
M838.744507,588.145081 
	C839.581238,586.527893 840.625183,584.982849 841.217773,583.280640 
	C843.442810,576.888672 840.081848,567.979126 834.268555,564.505676 
	C828.170166,560.861877 819.925964,562.002380 815.512146,567.100464 
	C809.439209,574.114929 810.188477,585.055603 817.175293,591.386597 
	C823.280884,596.918884 831.270691,595.916931 838.744507,588.145081 
M209.918564,584.161804 
	C212.272858,575.043213 208.608322,566.988953 201.023499,564.611450 
	C191.734421,561.699646 185.036438,564.601990 182.139557,572.794189 
	C178.431183,583.281311 181.280014,590.969543 190.237640,594.648315 
	C196.985092,597.419312 205.025299,593.370544 209.918564,584.161804 
M415.628052,809.867676 
	C416.951904,809.761658 418.312836,809.816895 419.593414,809.522644 
	C426.260712,807.990479 432.078339,801.371155 432.348877,795.129028 
	C432.681854,787.446411 428.628937,781.187683 422.042206,779.213196 
	C414.013062,776.806335 405.486176,781.381592 403.535614,789.143127 
	C400.579834,800.904663 404.373169,807.861450 415.628052,809.867676 
M616.595764,177.058990 
	C611.877930,171.155350 605.204346,169.502914 598.347534,172.540543 
	C592.285400,175.226120 588.376160,181.947403 589.431702,187.869781 
	C590.413086,193.375809 597.657532,199.338196 604.027344,199.882339 
	C608.921082,200.300385 616.781189,196.972397 617.726135,193.678864 
	C619.257812,188.340317 619.968140,182.905533 616.595764,177.058990 
M301.731720,551.737061 
	C291.479523,544.324829 281.651062,547.824097 278.703278,559.936035 
	C276.283600,569.877869 286.087830,579.528809 295.948700,576.911865 
	C308.144348,573.675293 311.004974,562.492676 301.731720,551.737061 
M715.373352,398.007629 
	C711.988770,405.826630 713.744568,412.072357 720.429382,415.993347 
	C727.412292,420.089203 736.514343,418.794891 740.803040,413.096252 
	C745.231873,407.211395 744.369751,399.354431 738.723755,394.147614 
	C731.697510,387.667938 723.038086,388.883392 715.373352,398.007629 
M717.763489,570.678833 
	C723.539124,576.093201 730.613037,577.334961 736.334106,573.938660 
	C741.058533,571.134033 744.383057,563.505737 743.172363,558.413879 
	C741.685303,552.160034 737.493103,548.630066 731.450562,547.601440 
	C724.982544,546.500488 719.379395,548.941162 715.829224,554.322754 
	C712.328247,559.629761 713.607178,565.136292 717.763489,570.678833 
M378.737732,636.680664 
	C373.287170,634.353027 368.228333,635.317261 363.887665,639.062561 
	C359.826630,642.566528 358.228210,651.251587 360.399017,655.647644 
	C363.339722,661.602783 369.774963,665.581604 375.133118,664.757629 
	C381.555420,663.769958 386.040894,658.671448 387.312439,650.913330 
	C388.329407,644.708496 385.764374,640.170349 378.737732,636.680664 
M650.367981,663.828796 
	C654.525146,663.613708 658.179749,662.430908 660.693726,658.786255 
	C664.817200,652.808105 664.579956,645.609863 660.009888,640.350708 
	C655.907898,635.630188 648.227356,634.201294 642.170105,637.031799 
	C636.637390,639.617188 633.924988,645.706787 635.218384,652.639160 
	C636.126526,657.507141 643.809998,663.539368 650.367981,663.828796 
M294.831482,390.485168 
	C286.864624,390.148071 281.494385,394.384491 279.559570,402.532684 
	C277.907349,409.490570 280.434113,413.952148 287.971771,417.386322 
	C292.764313,419.569855 299.791687,418.168762 303.673370,414.255829 
	C307.062958,410.839050 307.718933,404.881256 305.103943,399.791138 
	C302.994720,395.685516 300.068878,392.344879 294.831482,390.485168 
M329.441132,606.931641 
	C336.498810,602.768555 344.389679,599.911072 350.900787,593.671265 
	C348.850769,591.779236 346.780609,590.471985 345.558838,588.608459 
	C343.381653,585.287842 341.126434,585.298584 338.118988,587.279419 
	C327.838806,594.050293 316.907593,599.706726 306.175201,605.698242 
	C302.813141,607.575195 301.685089,609.419739 303.936646,613.181763 
	C306.054504,616.720337 307.895447,618.765930 312.062531,616.127441 
	C317.397552,612.749329 322.851105,609.553711 329.441132,606.931641 
M657.846252,316.508392 
	C648.099487,310.380432 641.675415,316.766602 635.401611,322.938782 
	C636.882019,324.370789 635.917603,326.651276 636.099243,328.731476 
	C636.598145,334.444061 639.893372,338.218597 644.750610,340.609711 
	C649.262817,342.830994 653.481689,341.450073 657.312073,338.583801 
	C664.631775,333.106445 665.090332,324.199921 657.846252,316.508392 
M775.196838,385.382812 
	C767.362244,385.496552 767.342468,385.529388 767.345642,393.159760 
	C767.350403,404.478943 767.438171,415.799652 767.272339,427.116516 
	C767.211365,431.277618 768.760742,433.407928 772.991516,433.426544 
	C777.008362,433.444244 778.632080,431.280823 778.628418,427.470276 
	C778.616394,414.819733 778.649170,402.169159 778.635742,389.518616 
	C778.633728,387.646088 778.534485,385.735046 775.196838,385.382812 
M362.268341,335.134155 
	C365.906281,339.136444 370.096069,342.164032 375.782379,340.348297 
	C380.322449,338.898651 384.176910,336.217590 385.466736,331.185944 
	C386.828461,325.873840 383.444672,318.561310 378.513245,315.828430 
	C373.221069,312.895630 366.658112,313.705902 362.990723,317.744843 
	C358.618347,322.560211 358.147247,328.963196 362.268341,335.134155 
M677.149292,589.663818 
	C676.049744,591.075562 674.311218,591.996582 673.716919,594.426819 
	C685.095825,603.972534 698.538086,610.476685 711.837036,617.040527 
	C715.639099,618.917053 716.550781,613.391724 718.679565,611.206909 
	C720.343140,609.499634 718.732056,608.181091 717.244690,607.295898 
	C705.171570,600.110596 692.651245,593.693787 680.937683,585.656616 
	C679.641418,587.025757 678.624023,588.100403 677.149292,589.663818 
M309.085327,351.069946 
	C307.245697,353.518341 304.528137,355.337280 303.447815,358.690094 
	C304.685486,359.690399 305.730072,360.780548 306.984467,361.509552 
	C316.879120,367.259491 326.794525,372.974609 336.754608,378.610199 
	C338.470825,379.581299 340.410492,380.175781 342.279327,380.855225 
	C347.028320,382.581940 347.084351,377.908722 348.805634,375.786896 
	C350.731506,373.412933 348.344910,372.286804 346.671875,371.292114 
	C341.112030,367.986328 335.503967,364.761780 329.924133,361.489410 
	C323.351318,357.634644 316.939026,353.475311 309.085327,351.069946 
M698.588074,358.134888 
	C691.470886,362.060883 684.325073,365.936340 677.255188,369.945679 
	C675.293274,371.058319 671.797546,371.882843 674.402710,375.257446 
	C676.543640,378.030823 677.403381,383.564606 683.183899,380.226898 
	C693.094788,374.504303 703.139465,369.007141 712.948853,363.117157 
	C719.575256,359.138336 719.450745,357.652924 713.644226,352.760010 
	C711.912415,351.300659 710.467712,351.306915 708.716736,352.311127 
	C705.549744,354.127472 702.379517,355.938324 698.588074,358.134888 
M243.956131,432.615875 
	C251.204681,435.031982 253.289886,433.486816 253.913498,426.112671 
	C254.913971,414.281860 253.730652,402.493927 253.714905,390.687347 
	C253.709091,386.322540 251.369141,385.460175 247.678238,385.348511 
	C243.510132,385.222443 243.270462,387.682312 243.203506,390.833038 
	C242.938248,403.313904 243.804291,415.817352 242.480743,428.277771 
	C242.336624,429.634521 242.585815,430.936005 243.956131,432.615875 
M290.828400,732.686035 
	C297.074646,735.421387 303.147980,738.478699 309.104065,741.817810 
	C314.171814,744.658997 319.479065,747.089417 324.768219,749.509521 
	C326.466949,750.286865 328.756165,751.650208 330.195984,749.448608 
	C331.581787,747.329590 329.513947,745.693726 328.226288,744.316345 
	C326.885010,742.881653 325.245361,741.642578 323.546539,740.638855 
	C311.344330,733.429199 298.568695,727.374817 285.460602,722.011475 
	C284.551727,721.639648 283.551575,721.382080 282.575470,721.305359 
	C280.457916,721.138977 279.042389,722.230408 278.505707,724.225647 
	C277.969696,726.218445 279.620422,726.693115 280.957031,727.384521 
	C284.055023,728.987000 287.122040,730.649353 290.828400,732.686035 
M289.943848,505.666656 
	C290.446808,512.213013 288.708252,518.994568 291.439270,525.778992 
	C296.612885,520.872253 296.043610,474.247406 290.754578,468.687469 
	C288.990417,481.015106 288.764587,492.835693 289.943848,505.666656 
M311.207306,244.719299 
	C305.731018,248.465698 300.223053,252.167099 294.801239,255.990723 
	C293.479034,256.923187 291.983398,258.187103 293.091125,260.119171 
	C293.956421,261.628387 295.517731,262.639435 297.248474,262.285614 
	C298.450989,262.039764 299.593445,261.084351 300.571869,260.227875 
	C305.833313,255.622360 311.550873,251.652542 317.371216,247.801987 
	C320.273163,245.882172 323.080261,243.794464 325.765930,241.583115 
	C327.042694,240.531860 329.439789,239.410599 327.999969,237.300308 
	C326.726257,235.433472 324.965546,237.156784 323.608917,237.867386 
	C319.640533,239.945953 315.747620,242.168610 311.207306,244.719299 
M709.786743,245.725861 
	C706.503052,243.788788 703.284546,241.727661 699.912842,239.958267 
	C697.660889,238.776505 694.867981,235.164017 692.788452,238.511215 
	C690.940918,241.484863 694.959412,243.179840 697.124146,244.684174 
	C705.151550,250.262436 714.453186,253.733932 722.219604,259.797394 
	C724.229553,261.366638 726.523376,261.331543 728.606995,258.534576 
	C723.614624,252.773010 716.101196,250.704895 709.786743,245.725861 
M637.401062,206.127090 
	C633.283386,203.639221 629.210449,201.072205 625.023499,198.706924 
	C623.582825,197.893082 621.708130,197.458038 620.461731,199.064957 
	C619.021362,200.921967 620.676575,202.167877 621.846313,203.241852 
	C626.829712,207.817139 632.764221,210.792755 639.180359,212.660995 
	C641.629700,213.374222 643.916443,216.046844 647.231140,213.969467 
	C645.051392,210.119476 641.033630,208.906876 637.401062,206.127090 
M391.056549,319.842438 
	C400.343567,316.901123 408.420044,311.539154 416.860596,306.909119 
	C417.938354,306.317932 418.787964,305.338379 418.055115,304.038666 
	C417.065765,302.283997 415.303436,301.908875 413.740265,302.877747 
	C406.111816,307.606110 397.830078,311.233704 390.587830,316.592133 
	C389.499725,317.397186 387.818909,318.643555 391.056549,319.842438 
M621.927368,316.613892 
	C625.361389,316.822449 627.455811,320.676208 631.282654,320.338715 
	C629.989746,315.010590 618.866882,307.496185 612.230042,307.214783 
	C613.188660,312.277588 617.264160,314.268341 621.927368,316.613892 
M469.971649,725.057983 
	C474.781189,724.441040 472.337280,719.632385 474.392090,717.262817 
	C475.685699,715.771057 474.459808,713.652222 472.616180,712.790771 
	C470.751984,711.919678 469.377014,713.245911 468.502441,714.662048 
	C466.343140,718.158203 466.587097,721.567505 469.971649,725.057983 
M294.663147,434.370361 
	C294.604797,432.684204 294.055145,431.389038 292.062378,431.586670 
	C290.909210,431.701080 290.431702,432.630646 290.298157,433.672302 
	C290.150726,434.821869 289.970306,436.203644 291.186890,436.775085 
	C292.848572,437.555542 294.013245,436.709625 294.663147,434.370361 
z"/>
<path fill="#000000" opacity="1.000000" stroke="none" 
	d="
M800.596680,814.551147 
	C797.956482,812.534302 797.956482,812.534302 798.886841,809.159485 
	C803.070862,810.859558 803.172913,811.126770 800.596680,814.551147 
z"/>
<path fill="#000000" opacity="1.000000" stroke="none" 
	d="
M632.479919,546.641357 
	C633.717163,545.628479 634.482361,544.475159 635.903381,544.289673 
	C635.667847,549.266113 633.117004,551.667542 628.195190,551.461304 
	C628.556030,549.019958 631.201050,548.627930 632.479919,546.641357 
z"/>
<path fill="#000000" opacity="1.000000" stroke="none" 
	d="
M552.326538,783.111328 
	C558.378479,808.111389 541.879578,832.827698 516.510437,837.280029 
	C492.254608,841.536987 468.298340,821.795288 467.587311,797.197632 
	C467.223694,784.618774 469.497742,773.084045 478.057007,763.261414 
	C496.912537,741.622681 535.624084,743.270935 550.036804,776.069397 
	C550.969604,778.192261 551.531311,780.478210 552.326538,783.111328 
M485.108521,779.653870 
	C484.273193,782.517700 483.097046,785.330811 482.661682,788.254211 
	C480.797913,800.769226 485.119995,811.125183 495.336487,818.245300 
	C504.756989,824.810791 515.015869,824.654968 524.948242,818.658325 
	C536.447449,811.715576 540.857971,795.938782 535.442627,781.407410 
	C531.686096,771.327209 521.040894,763.407349 510.038879,763.475891 
	C498.876953,763.545349 490.170288,768.318359 485.108521,779.653870 
z"/>
<path fill="#000000" opacity="1.000000" stroke="none" 
	d="
M768.406677,611.194458 
	C788.397217,610.438843 803.890747,619.392883 810.588074,635.257446 
	C818.769836,654.638611 815.811890,675.572449 801.326355,688.225281 
	C788.450134,699.472412 773.039795,702.755981 756.534302,696.274109 
	C739.969482,689.768982 731.389038,677.072205 729.776428,659.705139 
	C729.006104,651.409668 729.413208,643.036499 733.184814,635.248535 
	C740.245300,620.669067 751.730652,612.523071 768.406677,611.194458 
M786.742310,680.284790 
	C797.966309,672.888611 801.425415,662.062866 799.381104,649.464355 
	C797.392456,637.209106 790.264038,628.673523 777.857605,626.009583 
	C764.027100,623.039917 748.225037,628.782349 744.728333,649.955933 
	C742.695679,662.264404 747.234314,672.398010 757.089050,679.663391 
	C766.267578,686.430298 776.218933,686.573914 786.742310,680.284790 
z"/>
<path fill="#000000" opacity="1.000000" stroke="none" 
	d="
M747.692566,351.416443 
	C733.111206,340.949188 728.459167,326.578674 729.716736,309.698456 
	C731.125977,290.781921 742.734497,276.455261 760.659973,271.880005 
	C783.673096,266.006226 810.511536,278.317169 814.664307,308.636047 
	C818.088501,333.636017 801.636597,358.949341 770.931213,359.157990 
	C762.684570,359.214020 754.942017,356.263245 747.692566,351.416443 
M750.257324,332.185089 
	C755.689270,339.851074 763.429443,343.921906 772.489685,343.442383 
	C795.419678,342.228851 804.410400,322.002594 798.510498,304.016815 
	C794.669312,292.307037 783.875793,284.836365 771.423950,284.945709 
	C759.564758,285.049896 750.216797,292.294403 746.102417,303.987854 
	C742.600403,313.940857 744.337524,322.961731 750.257324,332.185089 
z"/>
<path fill="#000000" opacity="1.000000" stroke="none" 
	d="
M284.277893,341.187805 
	C272.628174,355.691132 257.713165,361.041870 240.148026,357.041168 
	C223.625916,353.278046 212.393692,343.192596 208.617523,326.031036 
	C204.499619,307.316406 208.058945,290.565338 223.575623,278.457275 
	C237.232193,267.800720 253.082001,267.197601 268.371857,274.506561 
	C283.266785,281.626709 291.177643,294.345215 292.332458,311.000153 
	C293.084656,321.848877 290.132385,331.720673 284.277893,341.187805 
M277.047699,313.525299 
	C276.826355,303.247406 273.239197,294.626038 264.218506,289.079865 
	C248.676422,279.524200 231.061554,285.935944 224.007935,303.530762 
	C216.372025,322.578094 231.272934,343.784515 251.693893,342.670013 
	C266.407471,341.866943 277.385193,328.957306 277.047699,313.525299 
z"/>
<path fill="#000000" opacity="1.000000" stroke="none" 
	d="
M515.850830,235.194122 
	C495.500793,236.562943 479.080017,226.963821 471.153748,209.359238 
	C463.083862,191.435593 466.766052,172.287949 480.942963,158.454132 
	C493.374634,146.323318 514.798645,144.060501 531.176697,153.277344 
	C557.495972,168.088623 558.963135,200.152100 543.871582,219.204193 
	C536.956787,227.933762 527.146179,232.719559 515.850830,235.194122 
M518.195251,218.935867 
	C519.281677,218.521896 520.403259,218.181656 521.449219,217.682846 
	C535.851624,210.814453 541.952087,194.034134 535.664429,178.636276 
	C530.315369,165.536972 514.346252,158.641418 500.679291,163.529465 
	C487.271149,168.324951 479.810699,183.575485 483.685028,198.268936 
	C487.663788,213.358307 501.472809,221.923798 518.195251,218.935867 
z"/>
<path fill="#000000" opacity="1.000000" stroke="none" 
	d="
M266.017670,613.680664 
	C284.387817,621.510010 296.485504,641.614868 290.357300,667.667114 
	C285.125397,689.908997 258.777588,705.050171 237.318375,697.167419 
	C202.895157,684.522461 197.806335,644.822998 220.764435,621.370728 
	C231.568558,610.334106 245.705460,609.003723 260.351013,612.094727 
	C262.137909,612.471924 263.878143,613.070312 266.017670,613.680664 
M224.661026,641.234070 
	C220.862564,649.746826 220.500198,658.360596 224.607269,666.794250 
	C231.465561,680.877563 248.399338,691.538757 265.651062,678.870850 
	C275.857086,671.376709 278.970032,660.561646 276.513000,648.274597 
	C273.951111,635.462952 265.284088,626.891846 253.828735,625.437683 
	C241.150909,623.828430 230.955490,629.171509 224.661026,641.234070 
z"/>
</svg>